<?xml version="1.0" encoding="UTF-8" standalone="no"?>
<svg
   width="512"
   height="512"
   viewBox="0 0 512 512"
   version="1.1"
   id="svg5"
   xmlns="http://www.w3.org/2000/svg"
   xmlnsSvg="http://www.w3.org/2000/svg">
  <defs
     id="defs18" />
  <g
     id="layer1">
    <path
       style="fill:#000000;stroke-width:2.12125"
       d="M 165.29578,461.20579 C 124.51955,450.83488 96.579172,430.24044 77.263904,396.31881 L 68.778905,381.41737 56.925678,380.34203 C 50.406403,379.75057 42.003215,377.67952 38.251929,375.73966 27.508413,370.18398 14.759559,356.11341 8.6371446,343.0546 3.5396453,332.18191 3.0201573,328.71967 3.0201573,305.61887 c 0,-22.0488 0.614735,-26.60315 4.5940208,-34.03534 6.1190179,-11.42862 21.2752919,-25.10903 35.6026759,-32.13585 11.538017,-5.65876 11.730619,-5.91005 19.103929,-24.92511 10.871408,-28.03629 21.362733,-44.7641 39.320547,-62.69432 18.5387,-18.51021 30.0362,-25.22205 56.27664,-32.85233 16.80769,-4.8874 23.28046,-5.58798 55.10594,-5.96434 l 36.06125,-0.42646 0.62277,-14.123405 0.6228,-14.123415 -7.57074,-2.498573 c -23.1892,-7.653128 -34.8336,-34.196117 -24.66621,-56.225859 14.90254,-32.2894518 59.8077,-32.2894518 74.71025,0 10.16738,22.029742 -1.477,48.572731 -24.66622,56.225859 l -7.57074,2.498573 0.62281,14.123415 0.62278,14.123405 38.18249,0.34028 c 34.71824,0.3094 39.74729,0.83977 55.42936,5.84566 19.04214,6.07846 43.61626,20.99525 60.66431,36.82398 18.63311,17.30042 29.13833,36.75445 37.5547,69.54542 2.01236,7.84043 3.30478,9.06744 14.39001,13.66201 16.6785,6.91286 29.03583,18.81334 34.89473,33.60465 4.00256,10.10485 4.76844,16.18545 4.85115,38.51488 0.0927,25.00796 -0.22318,27.05839 -5.55467,36.06124 -11.64288,19.66052 -32.93025,33.94 -50.59658,33.94 h -10.01071 l -8.19377,14.31845 c -9.84837,17.20978 -36.03738,43.9611 -50.75012,51.83972 -5.85698,3.13639 -19.21916,8.19955 -29.69372,11.25143 -18.85102,5.49245 -19.83206,5.55311 -96.47031,5.96434 -65.9904,0.35408 -79.46204,-0.10246 -91.21375,-3.09139 z M 348.7839,446.91177 c 43.44695,-14.29849 66.78722,-37.35589 87.2106,-86.15367 l 7.98473,-19.07797 0.84848,-44.18857 c 0.92006,-47.91696 -0.58986,-62.29821 -9.33933,-88.95372 -8.94913,-27.26381 -31.83077,-52.32707 -62.09991,-68.02074 -29.54453,-15.31798 -28.67991,-15.20447 -115.81832,-15.20447 -76.35091,0 -78.91908,0.13509 -94.39562,4.96558 -43.76521,13.65987 -67.279186,36.60456 -88.401699,86.26144 l -8.115176,19.07797 v 54.09188 54.09188 l 8.83059,20.57472 c 16.325478,38.03734 36.818325,61.70996 64.787545,74.84029 27.01299,12.6814 36.21837,13.69167 119.41561,13.10536 71.04541,-0.50068 74.88342,-0.73374 89.0925,-5.40998 z M 165.96998,412.44908 c -23.42269,-7.24761 -45.82577,-26.72561 -57.01371,-49.56969 -6.12306,-12.50237 -6.24529,-13.43901 -7.33365,-56.19989 -1.0546,-41.43455 -0.88557,-44.01019 3.58354,-54.6071 11.23329,-26.63585 30.06198,-46.08779 56.90127,-58.78482 l 11.63207,-5.50283 h 80.27086 c 73.18721,0 81.4252,0.35927 93.35169,4.0712 28.59277,8.89907 49.3303,28.98079 58.33399,56.48917 5.00892,15.30347 5.31092,93.29273 0.41453,107.05361 -9.85399,27.6939 -34.31948,50.85634 -60.50855,57.28582 -5.91604,1.4524 -39.74711,2.51379 -88.97396,2.7914 -68.45908,0.38607 -80.97918,-0.032 -90.65808,-3.02687 z m 180.97795,-13.29711 c 21.70349,-7.70409 41.65058,-27.94608 47.94432,-48.65309 1.76657,-5.81216 2.6804,-22.92123 2.6804,-50.18313 0,-41.08223 -0.0416,-41.4544 -6.09683,-54.56357 -7.16239,-15.50609 -24.06236,-32.60441 -38.22773,-38.6764 -18.34883,-7.86523 -31.44768,-8.88468 -105.22356,-8.18925 l -71.06188,0.66984 -15.43157,8.24503 c -18.10104,9.67133 -33.49235,25.41969 -42.22079,43.20025 -5.72185,11.6559 -6.01442,13.74044 -6.65098,47.38773 -0.59377,31.38485 -0.17647,36.64822 3.85412,48.61285 5.9129,17.55218 14.63694,29.93281 28.21384,40.03931 14.01506,10.43268 18.67939,12.79921 29.68255,15.05985 4.90412,1.00759 43.28084,1.62604 85.28158,1.37437 67.7467,-0.40596 77.59418,-0.89393 87.25653,-4.32379 z m -103.71632,-40.2253 c -8.75194,-3.26197 -11.97533,-5.41922 -22.22755,-14.87575 -6.44217,-5.94219 -6.65221,-6.57463 -3.3834,-10.18661 4.89785,-5.41206 7.29712,-4.86962 15.11328,3.41705 8.2926,8.79174 19.13657,12.70924 30.91697,11.1691 7.05468,-0.92232 10.4631,-3.05961 17.44288,-10.93776 8.51551,-9.61154 8.75779,-9.72165 13.18712,-5.99387 l 4.51221,3.79754 -5.79869,8.38711 c -3.1893,4.61291 -8.84555,10.16655 -12.56947,12.34145 -8.99382,5.25266 -27.07368,6.65349 -37.19335,2.88174 z m -69.95448,-53.4465 c -15.98224,-8.67187 -15.72301,-33.89516 0.43421,-42.25038 12.17861,-6.2978 26.96805,-2.05582 32.9129,9.44028 11.31518,21.88114 -11.71965,44.54502 -33.34711,32.8101 z m 142.12375,0 c -6.36989,-3.45626 -12.22385,-13.04052 -12.22385,-20.01317 0,-2.44926 1.448,-7.25332 3.21778,-10.67569 3.46649,-6.70346 12.92942,-12.65807 20.11597,-12.65807 11.24292,0 23.33374,12.09084 23.33374,23.33376 0,7.18653 -5.9546,16.64948 -12.65807,20.11596 -7.73811,4.00155 -14.27818,3.97069 -21.78557,-0.10288 z M 61.354529,364.94574 c 0,-1.78749 -1.53621,-6.79895 -3.413805,-11.13656 -2.847411,-6.57808 -3.352485,-15.89324 -3.04421,-56.14499 0.414814,-54.16322 1.04707,-52.37171 -14.911193,-42.25127 -20.812542,13.19892 -26.193474,25.13753 -24.879926,55.20084 1.002322,22.94028 4.724342,32.64992 16.896065,44.07681 12.752565,11.97217 29.353069,17.77195 29.353069,10.25517 z m 414.543931,-7.04898 c 15.43859,-11.65623 20.548,-22.54799 20.548,-43.8022 0,-32.10363 -6.13338,-47.72341 -22.91961,-58.36893 -18.45304,-11.70255 -17.87602,-13.0481 -17.53026,40.87793 0.23923,37.31607 -0.35143,48.75224 -2.82128,54.62219 -1.7181,4.0834 -3.82431,9.71242 -4.68044,12.50893 -1.50383,4.91208 -1.25771,5.04448 7.25564,3.90258 5.74418,-0.77045 12.7589,-4.1617 20.14795,-9.7405 z M 269.10623,67.344661 c 8.33108,-4.468022 14.97954,-15.457731 14.97954,-24.760793 0,-14.619406 -14.01746,-28.636875 -28.63687,-28.636875 -14.6194,0 -28.63687,14.017469 -28.63687,28.636875 0,14.619409 14.01747,28.636878 28.63687,28.636878 3.53647,0 9.68225,-1.744239 13.65733,-3.876085 z"
       id="path2489" />
    <path
       style="fill:#d3ffff;stroke:none;stroke-width:0.525196;stroke-miterlimit:4;stroke-dasharray:none;stroke-opacity:1;fill-opacity:1"
       d="m 217.58534,403.29997 c -12.73721,-0.0849 -35.29819,-0.64516 -39.47789,-0.98044 -5.96023,-0.47811 -12.0188,-2.19318 -17.40223,-4.92627 -5.33997,-2.71103 -15.21976,-9.62468 -21.34683,-14.93804 -10.14779,-8.80011 -17.64945,-20.56826 -22.75516,-35.69692 -3.79087,-11.23268 -4.3051,-17.26425 -3.83762,-45.0126 0.40943,-24.30252 0.88666,-33.37959 2.02738,-38.56128 1.35742,-6.16603 6.23554,-16.15369 11.77068,-24.09975 6.11591,-8.77979 15.38858,-18.09568 24.4574,-24.57141 3.8636,-2.75885 8.36861,-5.40618 17.64307,-10.3678 l 8.26094,-4.4194 31.76655,-0.35 c 44.75817,-0.49315 95.40279,-0.51115 103.7574,-0.0369 18.9038,1.07314 27.13473,2.52068 37.59947,6.61246 5.88031,2.29925 9.16433,4.14028 14.74417,8.26567 9.98109,7.37939 19.74926,18.58926 25.16718,28.88166 3.82661,7.26939 5.93723,13.32901 6.63846,19.0591 0.85572,6.99257 1.15684,36.60018 0.59348,58.35509 -0.51938,20.05655 -1.23406,26.90303 -3.42841,32.84307 -7.2555,19.64043 -26.29853,38.24095 -46.6391,45.55529 -6.55,2.35534 -13.13189,3.14588 -30.86311,3.7069 -10.60207,0.33545 -67.89426,0.90729 -80.93471,0.80781 -4.59656,-0.0351 -12.58007,-0.0919 -17.74112,-0.12627 z m 44.57482,-42.33094 c 6.66797,-0.54145 12.60474,-1.96267 16.71269,-4.00089 5.03928,-2.50032 10.72801,-8.11686 16.15132,-15.94638 1.94806,-2.81237 3.62784,-5.26139 3.73284,-5.44226 0.24439,-0.42096 -5.80171,-5.52587 -7.27252,-6.14042 -2.13218,-0.89088 -3.22237,-0.0981 -9.6702,7.03197 -5.33704,5.90175 -7.93771,8.22259 -10.85896,9.69055 -6.08997,3.06027 -15.46734,3.28886 -23.55423,0.57418 -5.40652,-1.81491 -9.51299,-4.61813 -15.94666,-10.88575 -6.77676,-6.60185 -8.66453,-7.08391 -12.74406,-3.2543 -1.86496,1.75071 -3.32435,3.85175 -3.32435,4.78598 0,1.19398 1.84345,3.39481 6.11524,7.30072 7.47679,6.83641 10.81331,9.36 15.43802,11.67657 8.19779,4.10638 15.3419,5.41223 25.22087,4.61003 z m -70.67333,-52.93196 c 7.7234,-2.10713 14.29823,-8.24093 16.88726,-15.75448 1.15274,-3.34536 1.59562,-7.37835 1.16533,-10.6118 -1.18113,-8.87564 -5.98105,-15.67207 -13.57929,-19.22752 -6.20287,-2.90252 -14.5012,-2.91227 -20.86998,-0.0245 -7.11272,3.22506 -11.9681,9.58547 -13.37155,17.51634 -0.46947,2.65298 -0.22144,8.98302 0.44671,11.40055 2.43501,8.81039 9.19244,14.98837 18.6182,17.02167 2.41678,0.52134 8.25938,0.34654 10.70332,-0.32022 z m 138.07155,0.30627 c 6.84076,-1.19293 12.27039,-4.82319 16.17643,-10.81558 4.67914,-7.17843 5.40177,-13.34105 2.34639,-20.01024 -1.43506,-3.13241 -3.18219,-5.5533 -6.00565,-8.32164 -5.27934,-5.17629 -11.60276,-7.71491 -17.44137,-7.00208 -5.09652,0.62223 -10.58049,3.54625 -14.90085,7.94505 -1.85931,1.89307 -2.54361,2.86538 -3.73888,5.31254 -1.61451,3.30551 -2.92916,7.92978 -2.92916,10.30333 0,5.03614 3.33344,11.80203 8.17253,16.58783 2.01363,1.99145 3.04014,2.75017 5.02335,3.71291 3.40435,1.65263 6.81846,2.59952 9.71187,2.69355 0.58369,0.019 2.19709,-0.16358 3.58534,-0.40567 z"
       id="path2705" />
    <path
       style="fill:#cccccc;fill-opacity:1;stroke:none;stroke-width:0.525196;stroke-miterlimit:4;stroke-dasharray:none;stroke-opacity:1"
       d="m 197.6449,451.85364 c -26.74213,-0.97536 -38.54702,-3.68368 -58.64834,-13.45525 -21.30498,-10.35674 -38.16622,-26.96194 -52.11061,-51.31935 -4.914397,-8.58424 -7.489872,-13.99337 -15.076818,-31.66501 l -5.096646,-11.87119 v -53.85791 -53.85791 l 5.241742,-12.27319 c 7.847849,-18.37521 11.094804,-25.12455 16.696353,-34.70618 16.574039,-28.35042 36.882529,-45.25955 67.207379,-55.95781 16.23668,-5.72811 20.9156,-6.50586 42.81329,-7.11655 14.98522,-0.41792 116.05063,-0.18036 123.89462,0.29121 15.88596,0.95506 23.78812,2.38322 32.98969,5.96224 3.46129,1.3463 18.38182,8.80039 23.31271,11.64672 10.91405,6.30005 20.47909,13.60208 29.20306,22.29381 13.53445,13.48448 22.30707,27.46028 27.79893,44.28703 6.05729,18.55912 8.04861,30.39206 8.85798,52.63688 0.3499,9.61679 0.26463,19.78625 -0.47915,57.14133 l -0.43127,21.65909 -4.39666,10.51462 c -5.56359,13.30539 -7.33917,17.31949 -10.56128,23.87625 -17.9634,36.55405 -39.64531,56.34144 -75.84431,69.2171 -15.58201,5.54238 -20.18353,6.04198 -60.6536,6.58503 -24.63105,0.33054 -85.34969,0.31069 -94.71707,-0.031 z m 65.97938,-36.3317 c 47.91232,-0.43492 72.82022,-1.21136 80.64147,-2.51379 3.12265,-0.51999 9.0098,-2.44002 13.42525,-4.37849 5.85791,-2.57173 12.69965,-6.79492 18.68472,-11.53348 3.77402,-2.988 12.20794,-11.51199 15.1764,-15.33847 6.19124,-7.98076 11.08008,-16.59067 14.17665,-24.96693 2.26221,-6.11934 3.21575,-15.79504 3.83302,-38.89426 0.6156,-23.0383 -0.4101,-50.06838 -2.39332,-63.06949 -0.64425,-4.22329 -1.55093,-7.5258 -3.19103,-11.62291 -6.27675,-15.68003 -16.10979,-28.39041 -29.50779,-38.14239 -9.06657,-6.59926 -22.61657,-12.7196 -32.9897,-14.90096 -10.40299,-2.18764 -22.41519,-2.47101 -105.11259,-2.47958 l -62.73917,-0.006 -6.90573,3.25766 c -11.16849,5.26856 -16.84827,8.45943 -23.62422,13.27196 -14.33166,10.17888 -25.58638,23.14582 -33.88471,39.03968 -3.9403,7.54689 -6.59065,14.49221 -7.5359,19.74808 -0.88846,4.94008 -0.62625,38.28598 0.52955,67.3447 0.73143,18.38935 1.52242,22.22528 6.72795,32.62731 6.5869,13.16236 15.37565,23.94905 27.27564,33.47618 11.8704,9.50345 25.86671,16.16268 37.32302,17.75772 10.73382,1.49445 33.86306,1.83436 90.09049,1.32396 z"
       id="path3632" />
    <path
       style="fill:#999999;fill-opacity:1;stroke:none;stroke-width:0.525196;stroke-miterlimit:4;stroke-dasharray:none;stroke-opacity:1"
       d="M 55.506175,367.96823 C 48.787949,367.0883 38.507824,360.90369 30.486813,352.91638 20.728372,343.19894 17.268517,334.932 15.636889,317.43414 c -0.51949,-5.5711 -0.517558,-22.83247 0.003,-26.53838 2.311371,-16.45585 8.327356,-25.03999 25.044472,-35.73563 7.526355,-4.81538 9.309787,-5.63953 10.897494,-5.03588 0.958009,0.36423 1.822403,1.7662 2.213588,3.59023 0.933133,4.35105 0.995054,7.07768 1.024173,45.09881 0.03,39.16801 0.100019,41.98361 1.206912,48.5315 0.245379,1.45154 0.850425,3.76082 1.344549,5.13173 2.78847,7.7364 3.565015,10.23028 3.69683,11.87241 0.127182,1.58439 0.0626,1.88754 -0.551256,2.58742 -0.85109,0.97038 -2.650559,1.34097 -5.010445,1.03188 z"
       id="path3782" />
    <path
       style="fill:#999999;fill-opacity:1;stroke:none;stroke-width:0.525196;stroke-miterlimit:4;stroke-dasharray:none;stroke-opacity:1"
       d="m 448.27858,367.66644 c -0.19354,-0.19354 -0.35189,-0.65152 -0.35189,-1.01773 0,-0.96623 1.97948,-6.83346 4.18926,-12.4171 1.05413,-2.66357 2.1183,-5.83058 2.36481,-7.0378 1.36904,-6.70444 1.6483,-15.5529 1.65283,-52.37001 0.005,-36.6426 0.18597,-40.41795 2.10688,-43.83574 1.58297,-2.81653 3.9324,-2.22347 12.54569,3.16689 5.55407,3.47584 7.94167,5.3085 11.18062,8.58196 7.35533,7.43369 11.47509,17.21493 13.28983,31.55305 1.1482,9.07175 1.31944,24.50967 0.34987,31.54155 -1.43223,10.38741 -4.74495,17.50418 -11.38524,24.45913 -6.7028,7.02042 -16.31399,13.51433 -23.62868,15.96498 -4.3471,1.45641 -11.45413,2.27067 -12.31398,1.41082 z"
       id="path3858" />
    <path
       style="fill:#ffffff;fill-opacity:1;stroke:none;stroke-width:0.525196;stroke-miterlimit:4;stroke-dasharray:none;stroke-opacity:1"
       d="m 250.42841,70.530727 c -5.5419,-1.219398 -10.74211,-4.270625 -15.16078,-8.895589 -10.57344,-11.067094 -11.00241,-25.442111 -1.10325,-36.969826 3.87299,-4.510149 9.60211,-8.218113 15.09106,-9.767128 1.93424,-0.545852 3.04068,-0.658449 6.3047,-0.641595 3.40985,0.01761 4.31609,0.12873 6.53586,0.801424 8.24023,2.497175 15.30238,8.565441 19.13302,16.440356 1.94079,3.989804 2.5527,6.619591 2.56456,11.021677 0.009,3.155333 -0.10047,4.032856 -0.78299,6.304696 -1.73197,5.765032 -4.8172,10.72901 -9.25956,14.898109 -1.97125,1.850004 -3.06487,2.595538 -5.70522,3.88935 -6.02182,2.950771 -12.55332,4.032792 -17.6174,2.918526 z"
       id="path3897" />
    <path
       style="fill:#f2f2f2;fill-opacity:1;stroke:none;stroke-width:0.742739;stroke-miterlimit:4;stroke-dasharray:none;stroke-opacity:1"
       d="m 213.64342,452.17117 c -0.0383,-0.0364 -4.9217,-0.19163 -10.852,-0.34501 -15.71461,-0.40644 -21.44679,-0.81257 -29.85886,-2.11554 -0.91235,-0.14131 -1.93875,-0.29747 -2.28088,-0.34702 -0.34214,-0.0495 -0.9953,-0.21135 -1.45148,-0.35956 -0.45617,-0.14822 -1.48257,-0.35739 -2.28088,-0.46482 -0.79831,-0.10743 -2.05798,-0.37933 -2.79927,-0.60423 -0.74129,-0.2249 -1.34779,-0.30577 -1.34779,-0.17972 0,0.12605 -0.28444,-0.007 -0.63209,-0.2954 -0.34764,-0.28852 -0.75036,-0.4063 -0.89493,-0.26173 -0.14457,0.14457 -0.46664,0.10281 -0.71571,-0.0928 -0.36382,-0.28572 -8.1765,-3.04309 -8.95435,-3.1603 -0.11404,-0.0172 -0.6739,-0.28944 -1.24412,-0.60501 -0.57022,-0.31557 -1.03676,-0.52498 -1.03676,-0.46534 0,0.32366 -14.66943,-6.50975 -15.13679,-7.05112 -0.11404,-0.1321 -1.23375,-0.78527 -2.48823,-1.45147 -1.25449,-0.66621 -2.3742,-1.30459 -2.48824,-1.41864 -0.11405,-0.11404 -1.59439,-1.14044 -3.28965,-2.28088 -7.62605,-5.13023 -14.63509,-11.18384 -20.14126,-17.39573 -4.81846,-5.43604 -5.00396,-5.66508 -8.582415,-10.59695 -1.406715,-1.93875 -2.71045,-3.58721 -2.897191,-3.66324 -0.186741,-0.076 -0.339528,-0.40261 -0.339528,-0.72574 0,-0.32312 -0.186618,-0.5875 -0.414707,-0.5875 -0.228088,0 -0.414706,-0.27993 -0.414706,-0.62206 0,-0.34213 -0.186618,-0.62206 -0.414706,-0.62206 -0.228089,0 -0.414707,-0.27992 -0.414707,-0.62206 0,-0.34213 -0.139963,-0.6242 -0.31103,-0.62681 -0.171066,-0.002 -0.667634,-0.74909 -1.103484,-1.65883 -0.43585,-0.90974 -0.949049,-1.65407 -1.140443,-1.65407 -0.191393,0 -0.347988,-0.2666 -0.347988,-0.59244 0,-0.32584 -0.255306,-0.84774 -0.567346,-1.15978 -0.312041,-0.31204 -0.697852,-0.97853 -0.857359,-1.48109 -0.159507,-0.50257 -0.464054,-0.91375 -0.676773,-0.91375 -0.212718,0 -0.38676,-0.25389 -0.38676,-0.56419 0,-0.3103 -0.426211,-1.19674 -0.947135,-1.96985 -0.520925,-0.77312 -2.339504,-4.29825 -4.041287,-7.83362 -1.701783,-3.53537 -3.281715,-6.56506 -3.510958,-6.73263 -0.229244,-0.16758 -0.265197,-0.30754 -0.0799,-0.31103 0.185302,-0.003 -0.114173,-0.89279 -0.665501,-1.97621 -1.134287,-2.229 -2.357532,-4.98125 -2.353134,-5.29445 0.0016,-0.115 -0.284552,-0.76504 -0.635928,-1.44452 -0.351376,-0.67949 -0.649364,-1.37735 -0.662197,-1.55081 -0.01283,-0.17345 -0.352201,-0.96854 -0.754153,-1.76685 -0.764861,-1.51907 -1.83658,-3.90441 -2.701712,-6.01324 -0.280716,-0.68426 -0.84057,-1.99059 -1.244119,-2.90294 -0.40355,-0.91236 -1.015744,-2.31199 -1.360431,-3.1103 -0.344687,-0.79831 -0.792632,-1.77552 -0.995433,-2.17158 -0.48681,-0.95072 -0.48681,-107.92097 0,-108.87168 0.202801,-0.39606 0.650746,-1.37327 0.995433,-2.17158 0.344687,-0.79831 0.956881,-2.19795 1.360431,-3.1103 0.758338,-1.71447 1.530035,-3.50437 2.592546,-6.01324 0.338085,-0.79831 0.874109,-1.96006 1.191165,-2.58165 0.317056,-0.6216 0.564863,-1.23006 0.550682,-1.35214 -0.01418,-0.12208 0.262717,-0.77987 0.615328,-1.46174 0.352612,-0.68188 0.496357,-1.24263 0.319433,-1.24612 -0.176924,-0.003 -0.123573,-0.14346 0.118557,-0.31103 0.487679,-0.33752 2.737634,-5.48085 2.652792,-6.06421 -0.02946,-0.20258 0.104291,-0.48251 0.297235,-0.62206 0.474601,-0.34325 2.442042,-4.68744 2.311949,-5.10487 -0.05702,-0.18297 0.08294,-0.33268 0.31103,-0.33268 0.228089,0 0.371465,-0.13996 0.318615,-0.31103 -0.119252,-0.38599 3.838941,-8.52182 4.294469,-8.82702 0.18213,-0.12202 0.738138,-1.14842 1.235574,-2.28088 0.497435,-1.13246 1.030106,-2.15233 1.183714,-2.26638 0.49334,-0.36627 4.579407,-7.35572 4.579407,-7.83334 0,-0.25343 0.186618,-0.46079 0.414706,-0.46079 0.228089,0 0.414707,-0.19442 0.414707,-0.43204 0,-0.23763 0.373235,-0.83267 0.829412,-1.32232 0.456177,-0.48965 0.829413,-1.13501 0.829413,-1.43413 0,-0.29912 0.186618,-0.54386 0.414706,-0.54386 0.228089,0 0.414707,-0.17701 0.414707,-0.39334 0,-0.21634 0.466545,-0.89675 1.036766,-1.51203 0.570221,-0.61528 1.036766,-1.3514 1.036766,-1.63582 0,-0.28443 0.279927,-0.62455 0.622059,-0.75585 0.342133,-0.13128 0.62206,-0.50452 0.62206,-0.82941 0,-0.32488 0.279927,-0.69812 0.622059,-0.82941 0.342133,-0.13129 0.62206,-0.4796 0.62206,-0.77403 0,-0.29442 0.37324,-0.76841 0.82942,-1.05329 0.45617,-0.28489 0.82941,-0.72281 0.82941,-0.97316 0,-0.25036 0.46655,-0.82217 1.03677,-1.27071 0.57022,-0.44854 1.03676,-0.96664 1.03676,-1.15133 0,-0.55865 8.0149,-8.85488 11.03574,-11.42312 1.07314,-0.91235 2.39671,-2.07872 2.94128,-2.59192 0.54456,-0.51319 1.16667,-0.93308 1.38245,-0.93308 0.21579,0 0.62544,-0.37324 0.91032,-0.82942 0.28489,-0.45617 0.75887,-0.82941 1.0533,-0.82941 0.29442,0 0.64274,-0.27993 0.77402,-0.62206 0.13129,-0.34213 0.47142,-0.62206 0.75585,-0.62206 0.28442,0 1.02054,-0.46654 1.63582,-1.03677 0.61528,-0.57022 1.29568,-1.03676 1.51203,-1.03676 0.21632,0 0.39333,-0.18662 0.39333,-0.41471 0,-0.22809 0.27992,-0.4147 0.62207,-0.4147 0.34212,0 0.62206,-0.16639 0.62206,-0.36975 0,-0.20337 0.42359,-0.47607 0.94133,-0.60601 0.51773,-0.12995 1.32521,-0.59389 1.79438,-1.03099 0.46917,-0.4371 1.25748,-0.9231 1.7518,-1.07999 0.49431,-0.15689 1.13848,-0.5063 1.43148,-0.77647 0.72754,-0.67085 10.97538,-5.68066 14.87187,-7.27033 1.74121,-0.71037 3.7007,-1.51284 4.35442,-1.78326 0.65371,-0.27041 1.28187,-0.51496 1.39591,-0.54343 1.31387,-0.32802 4.88744,-1.67266 5.28751,-1.98956 0.28511,-0.22584 0.51838,-0.2716 0.51838,-0.1017 0,0.1699 0.27993,0.0766 0.62206,-0.20736 0.34214,-0.28394 0.62206,-0.40411 0.62206,-0.26704 0,0.13707 1.25967,-0.19291 2.79927,-0.73329 2.44171,-0.857 4.10645,-1.33832 5.17616,-1.49653 0.16686,-0.0247 0.91332,-0.23076 1.65882,-0.45796 2.47704,-0.75489 5.98923,-1.31965 11.51578,-1.85171 14.0254,-1.35029 116.79035,-1.59149 141.82958,-0.3329 7.23601,0.36372 8.99321,0.5157 14.10002,1.21951 3.91717,0.53986 5.7329,0.88152 7.43725,1.39946 0.7832,0.23801 1.5125,0.34425 1.62067,0.23608 0.10816,-0.10816 0.4051,-0.0237 0.65986,0.18776 0.25476,0.21143 1.0184,0.4744 1.69698,0.58436 0.67858,0.10997 1.28044,0.23861 1.33746,0.28588 0.057,0.0473 0.29029,0.1326 0.51838,0.18962 0.22809,0.057 0.50802,0.15033 0.62206,0.20735 0.11405,0.057 0.34732,0.14264 0.51839,0.19027 0.17106,0.0476 0.87088,0.32079 1.55514,0.60704 0.68427,0.28625 1.55684,0.58381 1.93906,0.66124 0.38221,0.0774 1.17534,0.45556 1.7625,0.84029 0.58716,0.38472 1.07043,0.53807 1.07392,0.34077 0.003,-0.1973 0.14345,-0.17211 0.31103,0.056 0.16757,0.22809 3.75711,2.08717 7.97675,4.13128 4.21963,2.04411 7.7719,3.85638 7.89393,4.02726 0.12202,0.17088 1.05511,0.70376 2.07353,1.18418 2.18619,1.03128 4.25632,2.17288 4.54726,2.50765 0.11404,0.13122 0.86051,0.59776 1.65882,1.03676 0.79831,0.439 1.54479,0.89868 1.65883,1.02151 0.54186,0.58359 5.43208,3.71638 5.8012,3.71638 0.23067,0 0.4194,0.1556 0.4194,0.34578 0,0.19017 1.07305,1.07399 2.38456,1.96403 1.31151,0.89005 2.5338,1.85416 2.7162,2.14247 0.1824,0.28831 0.52878,0.5242 0.76972,0.5242 0.24095,0 0.80508,0.46654 1.25362,1.03677 0.44853,0.57022 0.96993,1.03676 1.15865,1.03676 0.41407,0 1.49076,1.01386 8.95816,8.43542 5.52564,5.49172 6.84862,6.89908 8.97193,9.54417 0.52273,0.65119 1.24461,1.50523 1.60416,1.89786 0.35956,0.39263 0.77359,1.0262 0.92008,1.40793 0.14648,0.38174 0.4588,0.69406 0.69406,0.69406 0.23524,0 0.42772,0.23518 0.42772,0.52262 0,0.28744 0.46654,1.02577 1.03676,1.64072 0.57022,0.61496 1.03677,1.31287 1.03677,1.55092 0,0.23804 0.18661,0.4328 0.4147,0.4328 0.22809,0 0.41471,0.27993 0.41471,0.62206 0,0.34214 0.13996,0.6242 0.31103,0.62682 0.17107,0.002 0.66764,0.74909 1.10348,1.65883 0.43586,0.90973 0.92882,1.65406 1.09549,1.65406 0.16666,0 0.41685,0.4535 0.55596,1.00777 0.13911,0.55427 0.48593,1.25409 0.7707,1.55515 0.28477,0.30106 1.35754,2.32025 2.38394,4.48709 1.02639,2.16684 2.05279,4.07682 2.28088,4.24439 0.22809,0.16758 0.28782,0.30754 0.13273,0.31103 -0.32633,0.007 1.60763,4.93545 2.24024,5.70857 0.2333,0.28511 0.28517,0.51838 0.11527,0.51838 -0.1699,0 -0.0766,0.27993 0.20735,0.62206 0.28395,0.34213 0.37726,0.62206 0.20736,0.62206 -0.16991,0 -0.0766,0.27992 0.20735,0.62206 0.28394,0.34213 0.37725,0.62206 0.20735,0.62206 -0.1699,0 -0.0766,0.27992 0.20735,0.62206 0.28395,0.34213 0.41017,0.62206 0.28048,0.62206 -0.12968,0 0.14245,1.07305 0.60477,2.38456 0.46231,1.31151 0.90453,2.66449 0.9827,3.00662 0.0782,0.34213 0.17028,0.62206 0.20468,0.62206 0.0344,0 0.14416,0.46654 0.24391,1.03676 0.0998,0.57023 0.30069,1.3167 0.44653,1.65883 0.29835,0.69991 0.41856,1.08826 0.70603,2.28089 0.10996,0.45617 0.50181,2.04242 0.87079,3.525 0.36898,1.48257 0.75842,3.16214 0.86541,3.73236 0.10699,0.57022 0.31288,1.50331 0.45752,2.07353 0.31205,1.2302 0.39443,1.69038 0.74221,4.14706 0.1453,1.0264 0.36615,2.33273 0.49077,2.90295 0.12464,0.57022 0.3114,1.78323 0.41503,2.69559 0.10364,0.91235 0.27528,2.4053 0.38144,3.31765 0.22593,1.94178 0.41158,3.93715 0.86814,9.33089 0.6046,7.1427 0.23849,75.47559 -0.46473,86.73942 -0.0806,1.29067 -0.33041,2.69031 -0.55518,3.1103 -0.22478,0.41999 -0.40983,0.85694 -0.41123,0.97098 -0.003,0.25364 -0.72413,1.99053 -2.01211,4.84712 -0.53354,1.18334 -0.97008,2.33458 -0.97008,2.55831 0,0.37643 -0.32574,1.08717 -2.02289,4.4137 -0.34911,0.68427 -0.62188,1.33743 -0.60618,1.45148 0.0303,0.21993 -0.42649,1.42247 -1.37608,3.62262 -0.31851,0.73796 -0.83717,1.95098 -1.15259,2.69559 -1.12095,2.64626 -2.28325,5.13579 -4.13829,8.86379 -1.03384,2.07767 -1.7601,3.8972 -1.61391,4.04339 0.1462,0.14619 0.0371,0.26581 -0.24249,0.26581 -0.27957,0 -0.39296,0.18661 -0.252,0.4147 0.14097,0.22809 0.0477,0.41471 -0.20735,0.41471 -0.25501,0 -0.34832,0.18662 -0.20735,0.4147 0.14096,0.22809 0.0476,0.41471 -0.20736,0.41471 -0.25501,0 -0.34832,0.18662 -0.20735,0.41471 0.14097,0.22809 0.0947,0.4147 -0.10276,0.4147 -0.19749,0 -1.00162,1.35298 -1.78698,3.00663 -0.78535,1.65364 -1.64896,3.24099 -1.91913,3.52745 -0.27016,0.28647 -0.6219,0.93963 -0.78163,1.45148 -0.15972,0.51184 -0.40691,1.02394 -0.54931,1.13798 -0.49546,0.39683 -3.36167,5.31191 -3.36167,5.76473 0,0.25073 -0.18662,0.45587 -0.41471,0.45587 -0.22809,0 -0.4147,0.19442 -0.4147,0.43205 0,0.23762 -0.37324,0.83266 -0.82942,1.32231 -0.45617,0.48965 -0.82941,1.13501 -0.82941,1.43413 0,0.29913 -0.18662,0.54387 -0.4147,0.54387 -0.22809,0 -0.41471,0.19476 -0.41471,0.4328 0,0.23805 -0.46655,0.93596 -1.03677,1.55092 -0.57022,0.61495 -1.03676,1.26784 -1.03676,1.45087 0,0.37715 -0.69316,1.2759 -1.76252,2.28529 -0.39915,0.37677 -0.72573,0.83018 -0.72573,1.00758 0,0.1774 -0.32657,0.67694 -0.72573,1.11009 -0.39916,0.43315 -1.25844,1.4129 -1.90954,2.17721 -3.78957,4.4486 -4.86257,5.64151 -7.15624,7.95603 -1.39379,1.40645 -3.52592,3.39695 -4.73808,4.42335 -1.21216,1.0264 -2.64627,2.28607 -3.18691,2.79927 -0.54064,0.5132 -1.07266,0.93309 -1.18226,0.93309 -0.40136,0 -4.3248,3.09007 -4.3248,3.40617 0,0.1794 -0.1761,0.32619 -0.39132,0.32619 -0.3295,0 -8.49273,5.09902 -9.76899,6.10203 -0.22807,0.17925 -1.39445,0.77771 -2.5919,1.3299 -1.19746,0.55218 -2.17721,1.1697 -2.17721,1.37226 0,0.20257 -0.18663,0.25296 -0.41472,0.11199 -0.22807,-0.14096 -0.41469,-0.0476 -0.41469,0.20736 0,0.25501 -0.18662,0.34832 -0.41472,0.20735 -0.22809,-0.14097 -0.41469,-0.0477 -0.41469,0.20735 0,0.25501 -0.18662,0.34832 -0.41472,0.20736 -0.22809,-0.14097 -0.41471,-0.0477 -0.41471,0.20735 0,0.25501 -0.1866,0.34832 -0.41469,0.20735 -0.2281,-0.14096 -0.41472,-0.0276 -0.41472,0.252 0,0.27957 -0.11604,0.39226 -0.25786,0.25044 -0.14183,-0.14183 -1.16696,0.2028 -2.27807,0.76585 -1.11111,0.56304 -2.11674,1.01743 -2.23472,1.00975 -0.11797,-0.008 -0.77046,0.27353 -1.44995,0.62491 -0.67948,0.35137 -1.3353,0.62726 -1.45738,0.61308 -0.12208,-0.0142 -0.73054,0.24733 -1.35214,0.58113 -1.0929,0.58689 -2.34549,1.10122 -3.20371,1.31549 -0.2281,0.0569 -0.97456,0.33736 -1.65882,0.62314 -0.68428,0.28578 -1.43075,0.57045 -1.65884,0.63259 -0.22809,0.0621 -2.37419,0.79235 -4.76912,1.6227 -2.39492,0.83034 -4.80286,1.59943 -5.35097,1.70909 -0.54811,0.10966 -2.13436,0.47762 -3.52501,0.8177 -1.39064,0.34008 -3.0883,0.71069 -3.77257,0.82358 -4.36459,0.72008 -13.90525,1.40363 -22.60149,1.61931 -15.78332,0.39144 -100.21464,1.04098 -100.49667,0.77312 z m 69.39369,-36.81172 c 44.93724,-0.83646 49.97633,-1.01452 59.81017,-2.11341 3.46774,-0.38751 10.57115,-2.67701 16.8906,-5.44403 2.18241,-0.95558 12.48754,-7.33631 13.96543,-8.64712 0.25717,-0.22809 0.89535,-0.69463 1.41819,-1.03676 2.13242,-1.39541 8.91251,-7.89551 13.826,-13.25505 5.33322,-5.81738 14.35213,-20.73994 16.56596,-27.40982 2.00362,-6.03656 2.83328,-11.44307 3.36923,-21.9558 0.1221,-2.39493 0.32724,-6.40721 0.45587,-8.91618 0.33162,-6.46815 0.34457,-38.72556 0.0183,-45.41035 -0.60954,-12.48617 -1.31984,-21.08087 -2.1592,-26.1265 -0.47105,-2.83169 -1.92631,-8.92237 -2.22944,-9.3309 -0.16925,-0.22809 -0.44163,-0.97456 -0.60531,-1.65882 -0.61506,-2.57144 -9.14075,-18.42842 -10.59115,-19.69856 -0.13023,-0.11404 -0.87588,-1.04713 -1.657,-2.07353 -3.02509,-3.97496 -7.38555,-8.67807 -10.84109,-11.69297 -3.40808,-2.97351 -3.95695,-3.43129 -5.15461,-4.29909 -0.60994,-0.44195 -1.3549,-1.03682 -1.65547,-1.32193 -0.30057,-0.28511 -0.74644,-0.51838 -0.99082,-0.51838 -0.24438,0 -0.44433,-0.18662 -0.44433,-0.41471 0,-0.22809 -0.27993,-0.41471 -0.62206,-0.41471 -0.34213,0 -0.62206,-0.18661 -0.62206,-0.4147 0,-0.22809 -0.26437,-0.41471 -0.5875,-0.41471 -0.32312,0 -0.6497,-0.13996 -0.72574,-0.31103 -0.35564,-0.8002 -16.27627,-8.81251 -17.51065,-8.81251 -0.16396,0 -1.11612,-0.37265 -2.11591,-0.8281 -0.99979,-0.45546 -2.24922,-0.90814 -2.77651,-1.00595 -0.52729,-0.0978 -1.00537,-0.21504 -1.06239,-0.2605 -0.057,-0.0455 -0.24364,-0.11897 -0.41471,-0.16334 -0.17107,-0.0444 -1.0575,-0.29279 -1.96986,-0.55204 -0.91235,-0.25925 -2.21868,-0.57093 -2.90294,-0.69262 -0.68427,-0.12169 -1.71066,-0.31816 -2.28089,-0.43661 -1.05666,-0.21949 -3.6112,-0.56835 -6.22059,-0.84951 -0.79831,-0.086 -4.53067,-0.26022 -8.29413,-0.38712 -3.76346,-0.12689 -7.85559,-0.32611 -9.09362,-0.4427 -1.23803,-0.11659 -33.97138,-0.20469 -72.74076,-0.19577 l -70.48979,0.0162 -3.56522,1.83645 c -1.96087,1.01004 -5.71132,2.89019 -8.33434,4.1781 -2.62301,1.28792 -5.70221,2.8752 -6.84265,3.52731 -1.14044,0.65211 -2.35346,1.31992 -2.69559,1.48404 -1.37467,0.6594 -6.43696,4.02219 -6.56619,4.3618 -0.076,0.19981 -0.31718,0.36329 -0.53588,0.36329 -0.21871,0 -0.62305,0.19008 -0.89854,0.4224 -1.81437,1.53007 -2.52418,2.06665 -2.74154,2.07247 -0.13616,0.004 -0.83186,0.51684 -1.54598,1.14044 -0.71413,0.6236 -2.11376,1.78698 -3.1103,2.58529 -2.99556,2.39969 -11.5952,11.25943 -14.46743,14.90501 -2.75543,3.49733 -7.87242,10.68226 -7.87242,11.05391 0,0.11408 -0.6134,1.1782 -1.36311,2.36471 -1.21925,1.92962 -6.15202,11.65678 -6.98247,13.76907 -0.17934,0.45617 -0.62754,1.57588 -0.996,2.48824 -1.27997,3.16943 -2.56204,8.7267 -2.72667,11.81913 -0.51444,9.66273 0.1331,52.51141 1.05287,69.67067 0.43224,8.06396 0.80609,10.90845 2.10999,16.05426 1.70266,6.7195 9.87748,21.9854 14.3876,26.86785 0.63209,0.68427 1.15011,1.3778 1.15117,1.54119 0.005,0.74774 10.34482,11.34789 13.66644,14.0103 0.99597,0.79831 2.63245,2.15129 3.63663,3.00662 1.00418,0.85533 1.96587,1.55515 2.13707,1.55515 0.17121,0 0.67306,0.33432 1.11522,0.74293 0.91957,0.84979 4.23063,3.12606 5.15835,3.54624 0.34214,0.15495 1.18192,0.63964 1.86618,1.07709 1.08106,0.69111 10.10438,5.24493 12.44119,6.27872 3.61102,1.5975 12.18869,3.63436 16.58826,3.93905 1.59662,0.11057 3.41429,0.28342 4.03928,0.38409 0.62498,0.10068 5.47705,0.3052 10.78237,0.45449 5.30531,0.14929 9.69936,0.31652 9.76454,0.37161 0.22193,0.1876 68.25363,-0.13042 81.786,-0.38231 z"
       id="path3983" />
    <path
       style="fill:#f2f2f2;fill-opacity:1;stroke:none;stroke-width:0.742739;stroke-miterlimit:4;stroke-dasharray:none;stroke-opacity:1"
       d="m 54.486975,367.79187 c -0.31633,-0.16019 -2.025797,-0.79425 -3.798816,-1.40901 -10.083052,-3.49614 -23.804992,-15.3462 -28.760969,-24.83755 -0.843622,-1.61566 -1.64353,-3.03086 -1.777571,-3.1449 -0.134042,-0.11405 -0.25412,-0.39397 -0.266841,-0.62206 -0.04777,-0.85664 -0.699039,-2.69563 -0.954918,-2.69642 -0.14634,-4.1e-4 -0.308772,-0.60564 -0.360959,-1.34486 -0.05219,-0.73922 -0.265649,-1.40097 -0.474359,-1.47053 -0.208709,-0.0696 -0.284208,-0.49078 -0.167775,-0.93603 0.116433,-0.44524 0.04997,-0.81036 -0.147701,-0.81138 -0.197669,-8.3e-4 -0.394272,-0.67552 -0.436897,-1.49888 -0.04262,-0.82336 -0.210335,-1.80227 -0.372691,-2.17535 -0.162355,-0.37308 -0.254498,-1.09509 -0.204762,-1.60447 0.04974,-0.50938 -0.03948,-1.13634 -0.19826,-1.39325 -0.158779,-0.25692 -0.343471,-1.14647 -0.410427,-1.97681 -0.06696,-0.83033 -0.224694,-2.6294 -0.350529,-3.99793 -0.248609,-2.70377 -0.263631,-24.80044 -0.01846,-27.16327 0.19472,-1.87665 1.637545,-8.15878 2.222467,-9.67672 0.249076,-0.64638 0.357059,-1.33026 0.239962,-1.51973 -0.117097,-0.18947 -0.07178,-0.40708 0.10071,-0.48358 0.419556,-0.18609 2.829974,-5.37753 2.698175,-5.8112 -0.05702,-0.18763 0.05192,-0.34114 0.242098,-0.34114 0.190177,0 1.043055,-1.01242 1.895285,-2.24982 2.301949,-3.34233 8.162172,-8.78537 13.316484,-12.36849 2.505643,-1.74185 4.882297,-3.45752 5.281452,-3.81259 0.399155,-0.35508 0.725736,-0.54994 0.725736,-0.43304 0,0.11691 0.706721,-0.23358 1.57049,-0.77885 0.86377,-0.54527 2.734215,-1.57885 4.156545,-2.29684 l 2.586054,-1.30544 1.438271,1.39683 c 0.791049,0.76826 1.351694,1.48341 1.245879,1.58923 -0.105815,0.10581 0.0079,0.91772 0.252659,1.80423 0.604035,2.18764 0.585754,1.3277 0.934555,43.95922 0.169821,20.75606 0.370703,39.23123 0.446406,41.05593 0.167548,4.03851 0.583262,8.07459 0.881362,8.55692 0.209343,0.33873 0.365825,0.94243 0.838051,3.23316 0.114251,0.55424 0.33271,1.2074 0.485459,1.45147 0.152753,0.24407 0.308372,0.63038 0.345828,0.85847 0.03745,0.22809 0.742519,2.42364 1.566811,4.879 1.629841,4.85489 1.90859,7.74253 0.833526,8.63475 -0.772917,0.64147 -4.757985,1.1685 -5.602325,0.74093 z"
       id="path4059" />
    <path
       style="fill:#f2f2f2;fill-opacity:1;stroke:none;stroke-width:0.742739;stroke-miterlimit:4;stroke-dasharray:none;stroke-opacity:1"
       d="m 448.23815,367.63721 c -0.40466,-0.45186 -0.41466,-0.90835 -0.0409,-1.86618 0.62462,-1.60056 2.104,-6.48393 2.10434,-6.94633 2.1e-4,-0.28511 0.14107,-0.51839 0.31302,-0.51839 0.29984,0 0.92759,-2.18407 0.78926,-2.74599 -0.0368,-0.14937 0.13099,-0.39385 0.3728,-0.54329 0.24181,-0.14945 0.50015,-0.63686 0.57408,-1.08313 0.0739,-0.44628 0.36514,-1.23131 0.64712,-1.7445 0.28199,-0.5132 0.38998,-0.93309 0.23998,-0.93309 -0.15,0 -0.0743,-0.23907 0.16819,-0.53127 0.2425,-0.29219 0.53236,-1.03559 0.64413,-1.65198 0.11178,-0.6164 0.3051,-1.28555 0.42961,-1.48702 0.22605,-0.36576 0.54511,-2.57398 0.93771,-6.49004 0.53585,-5.34492 0.75949,-19.51011 0.75949,-48.10594 0,-17.10664 0.12013,-31.19629 0.26696,-31.31033 0.14683,-0.11405 0.34614,-1.90417 0.4429,-3.97805 0.13587,-2.91223 0.40555,-4.23404 1.18451,-5.80589 0.92382,-1.86416 1.15595,-2.05486 2.76218,-2.26925 0.96448,-0.12872 1.80426,-0.11871 1.86618,0.0222 0.20831,0.47426 6.47045,3.66865 6.71413,3.42496 0.13261,-0.1326 0.2411,-0.0411 0.2411,0.20333 0,0.45271 3.28409,2.55984 3.81818,2.4498 0.16125,-0.0332 0.53448,0.23353 0.82941,0.59276 0.29493,0.35924 1.77607,1.61919 3.29141,2.79989 3.57147,2.78276 7.08333,6.59642 9.4225,10.23227 1.02721,1.59662 2.02109,2.96553 2.20861,3.04204 0.18753,0.0765 0.23548,0.30977 0.10655,0.51838 -0.12892,0.20861 -0.0679,0.37929 0.13565,0.37929 0.20354,0 0.37007,0.24942 0.37007,0.55426 0,0.81374 1.53946,4.41884 1.88772,4.42066 0.1639,8.7e-4 0.19059,0.28148 0.0593,0.62361 -0.13129,0.34214 -0.0211,0.62206 0.24484,0.62206 0.26595,0 0.38955,0.1521 0.27465,0.338 -0.18056,0.29216 0.5884,3.58827 1.27562,5.46789 0.12509,0.34213 0.28154,1.08861 0.34766,1.65883 0.0661,0.57022 0.42203,2.80963 0.79089,4.97647 0.36887,2.16684 0.74402,5.05942 0.83368,6.42795 0.35385,5.4013 0.77524,14.17685 0.74676,15.55149 -0.0567,2.73399 -0.49935,9.53073 -0.68181,10.46786 -0.21075,1.08236 -1.17267,6.85726 -1.2958,7.77922 -0.0457,0.34214 -0.19917,0.90199 -0.34108,1.24412 -0.83251,2.00709 -1.41957,4.10523 -1.20788,4.31693 0.13467,0.13466 0.0454,0.24484 -0.1984,0.24484 -0.24379,0 -0.63764,0.55762 -0.87523,1.23916 -0.65455,1.87765 -4.04821,6.94581 -6.59349,9.84689 -6.33255,7.21772 -18.66518,15.48556 -25.89483,17.35999 -1.44003,0.37336 -2.89817,0.77108 -3.2403,0.88384 -1.77764,0.58584 -7.28955,0.81514 -7.73152,0.32163 z"
       id="path4098" />
    <path
       style="fill:#00ff2f;fill-opacity:0.54891306;stroke:none;stroke-width:0.742739;stroke-miterlimit:4;stroke-dasharray:none;stroke-opacity:1"
       d="m 448.5468,367.49211 c -0.48635,-0.33108 -0.39862,-0.98863 0.54228,-4.06465 0.61737,-2.01832 1.39167,-4.28251 1.72066,-5.03154 0.32899,-0.74903 0.59816,-1.64203 0.59816,-1.98444 0,-0.34242 0.26454,-1.03591 0.58786,-1.54108 0.32333,-0.50518 1.08643,-2.41145 1.69578,-4.23615 2.14284,-6.41676 2.30683,-9.64948 2.53499,-49.97212 0.22276,-39.36741 0.49831,-45.69192 2.12753,-48.83136 1.35502,-2.61105 2.66628,-2.67136 7.25044,-0.33348 2.11372,1.07798 4.12305,2.2034 4.46518,2.50094 0.34214,0.29753 1.28085,0.88906 2.08603,1.3145 3.83343,2.02549 11.23849,9.04938 14.52902,13.78116 2.47436,3.55812 2.29129,3.23242 3.52483,6.27115 3.08539,7.60064 4.83893,17.05559 5.56177,29.98867 0.84775,15.16794 -0.81097,27.52246 -4.65958,34.70552 -4.93631,9.21318 -14.76754,18.16414 -26.39995,24.03617 -4.8627,2.45468 -14.55658,4.49163 -16.165,3.39671 z"
       id="path6402" />
    <path
       style="fill:#00ff2f;fill-opacity:0.548913;stroke:none;stroke-width:0.742739;stroke-miterlimit:4;stroke-dasharray:none;stroke-opacity:1"
       d="m 50.386825,366.08738 c -6.940785,-2.82712 -14.466144,-8.12556 -20.555156,-14.47244 -8.428428,-8.78537 -11.788761,-16.23313 -13.446637,-29.80279 -0.313711,-2.56771 -0.428192,-9.13885 -0.328733,-18.86914 0.150677,-14.7411 0.167061,-14.98436 1.298901,-19.28384 0.630464,-2.39493 1.581134,-5.1942 2.112598,-6.2206 0.531465,-1.0264 1.106861,-2.32878 1.27866,-2.89419 0.171798,-0.56541 1.283982,-2.24497 2.47152,-3.73236 5.072637,-6.35347 14.982676,-14.3151 23.299393,-18.71851 l 4.21732,-2.23291 1.23809,1.18023 c 0.952389,0.90789 1.338065,1.76916 1.67133,3.73236 0.481531,2.83659 0.85815,21.62675 0.969644,48.37718 0.0404,9.69376 0.20602,23.31686 0.368038,30.27356 0.324424,13.93006 0.167447,12.93468 3.846493,24.39031 1.644759,5.12137 1.992312,8.0688 1.061138,8.99892 -0.322525,0.32216 -1.61281,0.68972 -2.867296,0.8168 -2.020316,0.20466 -2.778337,0.0285 -6.635303,-1.54258 z"
       id="path7773" />
    <path
       style="fill:#00ff2f;fill-opacity:0.548913;stroke:none;stroke-width:0.742739;stroke-miterlimit:4;stroke-dasharray:none;stroke-opacity:1"
       d="m 249.44589,70.266556 c -1.25449,-0.326507 -3.86714,-1.382391 -5.80589,-2.346401 -2.87147,-1.427792 -4.25561,-2.485182 -7.4657,-5.703328 -2.16739,-2.172821 -4.55998,-5.007845 -5.31687,-6.300058 -6.67277,-11.392205 -4.36197,-24.325653 6.06638,-33.953299 5.16189,-4.765548 12.4435,-7.849051 18.53532,-7.849051 11.51998,0 23.23679,9.209209 27.41834,21.55033 1.08284,3.195803 1.07953,10.506464 -0.006,13.685311 -1.90935,5.590327 -5.38743,11.036182 -9.26128,14.500996 -6.18079,5.528152 -16.77081,8.339775 -24.16412,6.4155 z"
       id="path7812" />
  </g>
  <path
     style="fill:#ffffff;fill-opacity:1;stroke-width:1.05039"
     d="M 52.490263,366.59775 C 40.076285,362.2016 26.375676,350.12373 21.160652,338.97891 c -3.895432,-8.32478 -4.329575,-11.29808 -4.596859,-31.48233 -0.226231,-17.08409 -0.161088,-18.61596 0.984265,-23.14521 1.842313,-7.28536 4.059666,-11.4815 8.62572,-16.32339 3.874261,-4.10831 10.802692,-9.81645 15.789001,-13.00811 3.003483,-1.92249 8.250635,-4.59146 9.026718,-4.59146 0.325006,0 1.037234,0.85773 1.58273,1.90607 0.834568,1.60388 1.063351,4.742 1.443061,19.79381 0.248188,9.83826 0.480848,27.6527 0.517023,39.58763 0.08798,29.02821 0.482533,34.56201 3.073418,43.10653 2.628056,8.66711 2.906569,10.20883 2.039839,11.29168 -1.134417,1.41728 -3.976382,1.60936 -7.155305,0.48362 z"
     id="path948" />
  <path
     style="fill:#ffffff;fill-opacity:1;stroke-width:1.05039"
     d="m 448.88336,366.87528 c -0.33746,-0.87941 0.62071,-4.09081 4.80581,-16.10711 2.05939,-5.91293 2.55671,-13.34006 2.61495,-39.05225 0.062,-27.39094 0.89708,-55.71583 1.72447,-58.49482 0.99391,-3.33828 2.33813,-3.74371 6.34215,-1.91283 6.62616,3.02987 11.64294,6.6746 17.30046,12.56894 4.02033,4.18861 6.1268,6.93232 7.44862,9.70193 6.90779,14.47398 8.70813,47.8591 3.37341,62.55607 -5.20884,14.35021 -24.1924,29.1368 -40.16534,31.2854 -2.55537,0.34374 -3.1388,0.25138 -3.44453,-0.54533 z"
     id="path1209" />
  <path
     style="fill:#00d1b2;fill-opacity:1;stroke-width:1.05039"
     d="m 246.84624,68.997227 c -4.91917,-2.02356 -6.91785,-3.430702 -11.25711,-7.925386 -2.58999,-2.682767 -4.5959,-5.461451 -5.84227,-8.09299 -1.78185,-3.762117 -1.89806,-4.40249 -1.89806,-10.458805 0,-5.835028 0.15639,-6.785308 1.63712,-9.947531 5.65694,-12.08088 18.07151,-19.544253 29.62133,-17.807703 8.46682,1.273014 17.42323,8.196928 21.64017,16.729332 2.17849,4.407875 2.23082,4.666502 2.23082,11.025902 0,6.366485 -0.0502,6.613745 -2.24476,11.054097 -2.78449,5.634048 -7.93769,11.28574 -12.30513,13.495461 -7.11673,3.600738 -15.65993,4.363781 -21.58211,1.927623 z"
     id="path1248" />
  <path
     style="fill:#00d1b2;fill-opacity:1;stroke-width:1.05039"
     d="m 449.24628,365.96488 c 0,-0.64555 1.31555,-5.25127 2.92345,-10.23493 1.88978,-5.85732 3.11904,-10.88579 3.4766,-14.22147 0.30423,-2.83814 0.71804,-18.48809 0.91957,-34.77767 0.46242,-37.37721 1.13796,-53.05748 2.36661,-54.93264 0.49363,-0.75337 1.35328,-1.36955 1.91033,-1.3693 1.62233,7.4e-4 8.25893,3.35372 12.11982,6.12324 4.2545,3.05186 12.43406,11.36059 14.62503,14.85598 8.36809,13.35013 10.41695,53.32138 3.44898,67.28607 -6.13512,12.29553 -20.85658,24.07304 -34.43595,27.54955 -5.02735,1.28707 -7.35444,1.19884 -7.35444,-0.27883 z"
     id="path1324" />
  <path
     style="fill:#00d1b2;fill-opacity:1;stroke-width:1.05039"
     d="m 52.164955,366.28791 c -11.936483,-4.39748 -25.287907,-16.32623 -30.714982,-27.44212 -3.503002,-7.17495 -3.912172,-9.67126 -4.399639,-26.84189 -0.67588,-23.80729 0.292522,-30.99884 5.205149,-38.65451 3.848303,-5.99706 15.55446,-15.96229 24.09897,-20.51499 l 4.609695,-2.45615 0.981086,1.49732 c 1.360779,2.07681 1.820017,12.64782 2.281176,52.50931 0.207113,17.90241 0.633266,35.22847 0.947007,38.50237 0.318287,3.32134 1.468873,9.15431 2.602961,13.19588 1.117888,3.98383 2.035315,7.82786 2.038726,8.54229 0.01151,2.4117 -3.52838,3.18098 -7.650149,1.66249 z"
     id="path1363" />
  <path
     style="fill:#00d1b2;fill-opacity:0.07630522;stroke-width:1.05039"
     d="m 197.93814,402.86916 c -30.25989,-0.64547 -33.93834,-1.72419 -51.83318,-15.20031 -14.94033,-11.25115 -23.71162,-23.59439 -29.59833,-41.65171 -3.46878,-10.64038 -3.61889,-12.34575 -3.50975,-39.87281 0.10287,-25.94597 0.74347,-38.40463 2.27865,-44.31659 1.30179,-5.01319 6.14906,-14.8393 10.67124,-21.63214 6.92376,-10.4003 20.51613,-23.23768 31.52402,-29.77302 1.9354,-1.14904 7.08179,-4.00602 11.43643,-6.34884 l 7.91752,-4.25968 49.55785,-0.54584 c 50.54094,-0.55667 82.12947,-0.30571 94.71707,0.75247 25.32756,2.12918 39.39479,8.3478 54.56304,24.12039 11.63688,12.10051 19.07008,25.68934 20.8383,38.09502 0.92425,6.48443 0.91605,60.72381 -0.0111,73.71464 -0.83453,11.69262 -2.02879,16.5736 -5.89837,24.10687 -9.80962,19.09732 -29.43086,35.45619 -48.13472,40.1315 -6.67454,1.66841 -16.54635,2.16688 -53.90694,2.72203 -40.97668,0.60887 -60.52422,0.59982 -90.61168,-0.042 z m 73.4608,-43.32571 c 2.66324,-0.65238 6.22613,-1.88516 7.91753,-2.73951 6.11423,-3.08836 20.25392,-19.52217 18.80203,-21.8526 -1.10522,-1.77401 -6.67466,-5.93416 -7.9444,-5.93416 -0.85322,0 -3.75372,2.56922 -8.9219,7.90287 -10.12356,10.44767 -11.54651,11.15885 -22.31978,11.1554 -6.47865,-0.002 -8.18711,-0.20535 -11.3699,-1.3528 -5.06991,-1.82779 -9.15943,-4.54424 -14.84278,-9.85925 -5.24573,-4.90575 -7.77426,-6.66773 -9.57329,-6.67106 -1.75535,-0.004 -5.25913,2.5964 -6.74945,5.00779 -1.17247,1.8971 -1.22434,2.27459 -0.4998,3.63803 1.14032,2.14589 12.37247,12.17889 16.97811,15.16552 4.49662,2.91594 9.88522,5.1798 15.22374,6.39581 5.13144,1.16885 16.78094,0.74084 23.29989,-0.85604 z m -78.17188,-52.04023 c 10.94223,-3.81061 18.16006,-15.67438 16.22381,-26.66668 -1.46331,-8.30731 -6.31547,-14.90412 -13.4477,-18.28294 -3.70578,-1.75558 -4.31443,-1.86173 -10.67442,-1.86173 -6.42145,0 -6.93153,0.0915 -10.6475,1.90939 -8.91437,4.36106 -14.02218,13.57665 -13.2321,23.87354 0.45939,5.9871 2.27344,10.27317 6.09514,14.40108 6.53693,7.06066 16.81936,9.714 25.68277,6.62734 z m 140.08701,-0.15092 c 6.62798,-2.28036 11.14663,-6.56856 14.59497,-13.85065 3.91095,-8.25898 1.94901,-16.52392 -5.71563,-24.07793 -2.01559,-1.98649 -5.17479,-4.33947 -7.08693,-5.27835 -2.9842,-1.46528 -4.12501,-1.69405 -8.44757,-1.69405 -4.44815,0 -5.42102,0.20853 -8.85124,1.89722 -7.04122,3.46638 -10.87014,7.77664 -13.46496,15.15766 -2.32539,6.61464 -0.84079,13.18397 4.58873,20.30497 5.71929,7.50104 15.60892,10.55973 24.38263,7.54113 z"
     id="path1402" />
</svg>
